<svg xmlns="http://www.w3.org/2000/svg" xmlns:xlink="http://www.w3.org/1999/xlink" viewBox="0,0,256,256" width="16px" height="16px" fill-rule="nonzero"><g fill="#858585" fill-rule="nonzero" stroke="none" stroke-width="1" stroke-linecap="butt" stroke-linejoin="miter" stroke-miterlimit="10" stroke-dasharray="" stroke-dashoffset="0" font-family="none" font-weight="none" font-size="none" text-anchor="none" style="mix-blend-mode: normal"><g transform="scale(10.66667,10.66667)"><path d="M10,2c-4.411,0 -8,3.589 -8,8c0,4.411 3.589,8 8,8c1.936,0 3.71361,-0.6928 5.09961,-1.8418l5.62109,5.62109c0.146,0.146 0.3373,0.2207 0.5293,0.2207c0.192,0 0.3833,-0.0737 0.5293,-0.2207c0.293,-0.293 0.293,-0.76559 0,-1.05859l-5.62109,-5.62109c1.149,-1.386 1.8418,-3.16361 1.8418,-5.09961c0,-4.411 -3.589,-8 -8,-8zM10,3.5c3.584,0 6.5,2.916 6.5,6.5c0,3.584 -2.916,6.5 -6.5,6.5c-3.584,0 -6.5,-2.916 -6.5,-6.5c0,-3.584 2.916,-6.5 6.5,-6.5zM10,5c-2.76142,0 -5,2.23858 -5,5c0,2.76142 2.23858,5 5,5c2.76142,0 5,-2.23858 5,-5c0,-2.76142 -2.23858,-5 -5,-5z"></path></g></g></svg>